<?xml version="1.0" encoding="utf-8"?>
<!-- Generator: Adobe Illustrator 16.0.0, SVG Export Plug-In . SVG Version: 6.00 Build 0)  -->
<!DOCTYPE svg PUBLIC "-//W3C//DTD SVG 1.1//EN" "http://www.w3.org/Graphics/SVG/1.1/DTD/svg11.dtd">
<svg version="1.1" id="galstukW" xmlns="http://www.w3.org/2000/svg" xmlns:xlink="http://www.w3.org/1999/xlink" x="0px" y="0px"
	 width="8px" height="20px" viewBox="0 0 8 20" enable-background="new 0 0 8 20" xml:space="preserve">
<path fill="#FFFFFF" d="M7.939,15.238c-0.129-0.504-2.256-8.761-2.256-8.761s-0.19-0.385-0.377-0.571
	C5.117,5.712,4.932,5.715,4.932,5.715H2.673c0,0-0.191,0.004-0.375,0.191C2.106,6.099,1.921,6.477,1.921,6.477
	S0.13,14.84,0.04,15.238c-0.09,0.396,0,0.762,0,0.762l3.386,3.811c0,0,0.335,0.189,0.564,0.189c0.24,0,0.564-0.189,0.564-0.189
	L7.939,16C7.939,16,8.07,15.741,7.939,15.238z M3.99,18.286c-0.261,0.014-2.6-2.747-2.634-3.048
	c-0.031-0.303,1.881-8.191,1.881-8.191h1.318c0,0,2.281,7.893,2.256,8.191C6.786,15.536,4.252,18.271,3.99,18.286z M1.545,4.381
	c0.142,0.144,0.376,0.19,0.376,0.19h3.763c0,0,0.235-0.049,0.377-0.19C6.2,4.237,6.247,4,6.247,4l0.563-3.048
	c0,0-0.041-0.323-0.188-0.57C6.488,0.153,6.247,0,6.247,0H1.356c0,0-0.234,0.142-0.376,0.382c-0.14,0.236-0.188,0.57-0.188,0.57
	L1.356,4C1.356,4,1.405,4.239,1.545,4.381z"/>
</svg>
