<?xml version="1.0" encoding="utf-8"?>
<!-- Generator: Adobe Illustrator 16.0.0, SVG Export Plug-In . SVG Version: 6.00 Build 0)  -->
<!DOCTYPE svg PUBLIC "-//W3C//DTD SVG 1.1//EN" "http://www.w3.org/Graphics/SVG/1.1/DTD/svg11.dtd">
<svg version="1.1" id="гастук_1_" xmlns="http://www.w3.org/2000/svg" xmlns:xlink="http://www.w3.org/1999/xlink" x="0px"
	 y="0px" width="44px" height="105px" viewBox="0 0 44 105" enable-background="new 0 0 44 105" xml:space="preserve">
<g id="гастук">
	<g>
		<path fill-rule="evenodd" clip-rule="evenodd" fill="#F5DE47" d="M43,80c-0.695-2.641-12-46.001-12-46.001S29.984,31.984,29,31
			c-1.016-1.016-2-0.999-2-0.999H15c0,0-1.018,0.017-2,0.999c-1.018,1.018-2,2.999-2,2.999S1.48,77.912,1,80
			c-0.48,2.089,0,3.999,0,3.999L19,104c0,0,1.778,1,3,1c1.277,0,3-1,3-1l18-20.001C43,83.999,43.695,82.64,43,80z M22,96.001
			C20.609,96.076,8.171,81.585,8,80s10-42.999,10-42.999h7c0,0,12.133,41.432,12,42.999S23.391,95.924,22,96.001z M9,23
			c0.756,0.756,2,1,2,1h20c0,0,1.253-0.253,2-1c0.753-0.753,1-2,1-2l3-16c0,0-0.219-1.699-1-3c-0.717-1.194-2-2-2-2H8
			c0,0-1.247,0.745-2,2C5.253,3.245,5,5,5,5l3,16C8,21,8.256,22.256,9,23z"/>
	</g>
</g>
</svg>
