<?xml version="1.0" encoding="utf-8"?>
<!-- Generator: Adobe Illustrator 16.0.0, SVG Export Plug-In . SVG Version: 6.00 Build 0)  -->
<!DOCTYPE svg PUBLIC "-//W3C//DTD SVG 1.1//EN" "http://www.w3.org/Graphics/SVG/1.1/DTD/svg11.dtd">
<svg version="1.1" id="Часы_1_" xmlns="http://www.w3.org/2000/svg" xmlns:xlink="http://www.w3.org/1999/xlink" x="0px"
	 y="0px" width="54px" height="52px" viewBox="0 0 54 52" enable-background="new 0 0 54 52" xml:space="preserve">
<g id="Часы">
	<g>
		<path fill-rule="evenodd" clip-rule="evenodd" fill="#464646" d="M53.927,23.86c-0.04-0.519-0.08-1.036-0.12-1.553
			c-0.203-1.168-0.322-2.281-0.592-3.336c-1.399-5.467-4.164-9.457-8.095-12.397c-0.785-0.587-1.618-1.132-2.478-1.643
			c-0.445-0.242-0.89-0.484-1.334-0.727c-1.063-0.614-2.271-1.021-3.471-1.484c-1.376-0.532-2.875-0.895-4.414-1.274
			c-0.498-0.093-0.996-0.186-1.494-0.279c-0.651-0.14-1.337-0.168-2.036-0.288c-0.526-0.091-1.118-0.138-1.705-0.129
			c-0.347,0.141-0.53,0.141-0.731,0.428c-0.383,0.543-0.077,1.205,0.36,1.453c0.208,0.118,0.461,0.072,0.763,0.12
			c0.432,0.039,0.862,0.079,1.294,0.119c1.427,0.249,2.788,0.413,4.093,0.747c3.773,0.969,6.951,2.414,9.709,4.371
			c3.263,2.316,5.838,5.729,7.182,9.947c0.317,0.997,0.51,2.024,0.742,3.137c0.143,0.683,0.161,1.43,0.281,2.16
			c0.02,0.296,0.039,0.592,0.061,0.887c0.01,0.421,0.02,0.843,0.029,1.265c0.053,0.328,0.041,0.919-0.01,1.244
			c-0.01,0.325-0.02,0.65-0.03,0.976c-0.021,0.293-0.04,0.585-0.06,0.877c-0.141,0.855-0.146,1.712-0.322,2.519
			c-0.162,0.744-0.271,1.489-0.48,2.19c-0.383,1.279-0.8,2.462-1.305,3.595c-0.477,1.07-1.1,2.066-1.745,2.978
			c-2.497,3.522-5.954,5.89-10.312,7.577c-1.316,0.51-2.713,0.821-4.192,1.185c-0.899,0.222-1.848,0.297-2.829,0.469
			c-0.632,0.11-1.315,0.073-1.985,0.178c-0.401,0.021-0.803,0.041-1.204,0.062c-0.454,0.07-1.175,0.025-1.594-0.041
			c-0.291-0.026-0.582-0.053-0.873-0.079c-0.75-0.138-1.482-0.226-2.167-0.428c-2.837-0.838-5.14-2.032-7.272-3.545
			c-0.658-0.467-1.26-0.999-1.886-1.494c-2.85-2.247-5.034-5.122-6.56-8.692c-0.503-1.177-0.854-2.457-1.194-3.813
			c-0.077-0.432-0.154-0.863-0.231-1.294c-0.147-0.738-0.283-1.731-0.271-2.569c0.501,0.81,1.003,1.619,1.504,2.43
			c0.16,0.259,0.296,0.612,0.532,0.797C8,30.905,8.711,30.742,9.01,30.253c0.405-0.662-0.228-1.399-0.501-1.843
			c-0.886-1.437-1.772-2.874-2.658-4.312c-0.262-0.417-0.646-1.295-1.415-1.165c-0.382,0.064-0.676,0.263-0.813,0.568
			c-0.03,0.089-0.06,0.179-0.09,0.269c-0.114,0.186-0.227,0.372-0.341,0.559c-0.839,1.359-1.679,2.721-2.518,4.081
			c-0.274,0.445-0.906,1.179-0.501,1.843c0.298,0.489,1.011,0.652,1.524,0.249c0.209-0.164,0.329-0.468,0.471-0.697
			c0.428-0.69,0.856-1.38,1.284-2.071c0-0.007,0-0.014,0-0.02c0.06,0.6,0.12,1.201,0.18,1.802C3.86,30.731,4.015,31.903,4.346,33
			c0.795,2.635,1.816,4.982,3.24,6.99c0.552,0.779,1.153,1.498,1.746,2.23c0.244,0.256,0.488,0.511,0.732,0.767
			c0.197,0.196,0.395,0.392,0.592,0.588c0.154,0.152,0.308,0.305,0.461,0.459c0.533,0.426,1.003,0.921,1.545,1.344
			c0.573,0.446,1.126,0.93,1.725,1.354c2.444,1.729,5.12,3.156,8.466,4.003c0.683,0.173,1.4,0.249,2.136,0.378
			c0.328,0.026,0.656,0.053,0.983,0.08c0.405,0.063,1.112,0.096,1.544,0.03c0.415-0.02,0.829-0.04,1.243-0.061
			c0.668-0.103,1.334-0.061,1.957-0.169c0.725-0.126,1.438-0.162,2.115-0.308c1.354-0.293,2.63-0.522,3.862-0.907
			c2.771-0.864,5.309-1.987,7.452-3.484c0.615-0.43,1.203-0.886,1.786-1.344c0.243-0.22,0.487-0.439,0.731-0.658
			c0.344-0.275,0.697-0.605,0.974-0.946c0.276-0.34,0.628-0.63,0.903-0.975c0.564-0.709,1.141-1.423,1.635-2.201
			c1.076-1.698,1.94-3.572,2.607-5.686c0.355-1.126,0.563-2.321,0.813-3.564c0.074-0.564,0.146-1.129,0.221-1.693
			c0.122-0.72,0.032-1.483,0.15-2.23c0.004-0.288,0.007-0.577,0.01-0.867c0-0.268,0-0.536,0-0.806c0-0.155,0-0.312,0-0.468
			C53.96,24.524,53.943,24.191,53.927,23.86z M19.342,37.45c0.654,0.201,1.049-0.262,1.314-0.586
			c0.842-0.906,1.685-1.813,2.528-2.719c1.441-1.55,2.882-3.1,4.323-4.65c0.397-0.429,0.796-0.855,1.193-1.284
			c0.186-0.228,0.427-0.385,0.542-0.687c0.071-0.188,0.05-0.473,0.05-0.728c0-0.447,0-0.896,0-1.344c0-1.55,0-3.101,0-4.65
			c0-2.758,0-5.517,0-8.273c0-1.332,0.288-2.76-1.104-2.749c-0.077,0.017-0.153,0.033-0.23,0.05
			c-0.251,0.094-0.476,0.282-0.582,0.519c-0.136,0.302-0.091,0.833-0.091,1.265c0,0.862,0,1.726,0,2.589c0,4.201,0,8.404,0,12.605
			c-2.363,2.539-4.727,5.078-7.091,7.617c-0.321,0.351-0.642,0.703-0.963,1.055c-0.159,0.196-0.392,0.345-0.501,0.588
			C18.448,36.691,18.852,37.302,19.342,37.45z M39.644,14.79c0.697-0.109,1.183-0.442,1.425-0.996
			c0.547-1.259-0.434-2.388-1.686-2.37c-0.154,0.033-0.308,0.066-0.461,0.099c-0.468,0.181-0.821,0.533-1.004,0.996
			C37.48,13.632,38.487,14.969,39.644,14.79z M46.304,26.667c0.547-1.257-0.434-2.385-1.685-2.369
			c-0.154,0.033-0.309,0.066-0.462,0.101c-0.468,0.18-0.821,0.532-1.003,0.995c-0.438,1.112,0.568,2.45,1.725,2.27
			C45.576,27.555,46.063,27.222,46.304,26.667z M39.644,40.21c0.697-0.108,1.183-0.442,1.425-0.996
			c0.547-1.258-0.434-2.387-1.686-2.369c-0.154,0.032-0.308,0.065-0.461,0.1c-0.468,0.18-0.821,0.531-1.004,0.995
			C37.48,39.053,38.487,40.389,39.644,40.21z M27.697,42.699c-0.467,0.18-0.821,0.532-1.003,0.995
			c-0.438,1.112,0.57,2.451,1.726,2.271c0.696-0.109,1.183-0.441,1.424-0.996c0.547-1.258-0.434-2.386-1.686-2.37
			C28.005,42.633,27.852,42.665,27.697,42.699z"/>
	</g>
</g>
</svg>
