<?xml version="1.0" encoding="utf-8"?>
<!-- Generator: Adobe Illustrator 16.0.0, SVG Export Plug-In . SVG Version: 6.00 Build 0)  -->
<!DOCTYPE svg PUBLIC "-//W3C//DTD SVG 1.1//EN" "http://www.w3.org/Graphics/SVG/1.1/DTD/svg11.dtd">
<svg version="1.1" id="Копилка_1_" xmlns="http://www.w3.org/2000/svg" xmlns:xlink="http://www.w3.org/1999/xlink" x="0px"
	 y="0px" width="52px" height="56px" viewBox="0 0 52 56" enable-background="new 0 0 52 56" xml:space="preserve">
<g id="Копилка">
	<g>
		<path fill-rule="evenodd" clip-rule="evenodd" fill="#47CEA0" d="M22.825,17.276c0.6,0.258,1.249,0.45,1.966,0.607
			c0.267,0.033,0.535,0.067,0.802,0.101c0.282,0.048,0.947,0.093,1.273,0.039c0.238-0.019,0.475-0.039,0.713-0.06
			c0.544-0.101,1.061-0.176,1.545-0.328c2.691-0.845,4.651-2.668,5.707-5.139c0.426-0.996,0.691-2.126,0.691-3.535
			c0-0.379,0.004-0.735-0.06-1.074c-0.162-0.87-0.337-1.625-0.632-2.33c-1.301-3.104-4.298-5.622-8.807-5.556
			c-0.311,0.029-0.622,0.059-0.933,0.089c-0.619,0.124-1.209,0.231-1.745,0.438c-2.664,1.033-4.555,2.888-5.517,5.606
			c-0.176,0.499-0.273,1.037-0.381,1.604c-0.24,1.262-0.026,2.799,0.281,3.794C18.57,14.256,20.326,16.202,22.825,17.276z
			 M19.435,8.017c0.091-0.485,0.178-0.954,0.341-1.374c0.783-2.014,2.18-3.441,4.203-4.222c0.409-0.158,0.863-0.257,1.334-0.348
			c0.254-0.027,0.508-0.054,0.762-0.08c0.587,0.003,1.136-0.005,1.625,0.1c2.518,0.534,4.278,1.954,5.206,4.063
			c0.451,1.026,0.829,2.624,0.512,4.102c-0.121,0.561-0.266,1.079-0.472,1.554c-0.852,1.953-2.446,3.344-4.624,3.983
			c-0.467,0.137-0.963,0.156-1.505,0.238c-0.247-0.003-0.495-0.007-0.742-0.011c-0.21-0.016-0.421-0.032-0.632-0.05
			c-0.612-0.112-1.162-0.252-1.665-0.457c-1.989-0.808-3.428-2.319-4.093-4.44C19.435,10.273,19.241,9.056,19.435,8.017z
			 M24.741,12.976c0.266,0.073,0.574,0.177,0.873,0.188c-0.008,0.583,0.179,0.941,0.572,1.116c0.744,0.329,1.446-0.221,1.435-0.956
			c1.325,0.002,2.29-0.632,2.688-1.563c0.273-0.643,0.236-1.622-0.091-2.171c-0.37-0.621-1.015-0.928-1.785-1.155
			c-0.271-0.053-0.542-0.105-0.813-0.158c-0.007,0-0.014,0-0.021,0c0-0.618,0-1.235,0-1.853c0.902,0.103,1.783,0.756,2.338-0.18
			c0.076-0.128,0.17-0.345,0.13-0.577C29.91,4.763,28.985,4.7,28.142,4.492c-0.177-0.034-0.354-0.066-0.532-0.1
			c-0.02-0.091-0.039-0.179-0.06-0.269c-0.063-0.196-0.199-0.388-0.351-0.498c-0.636-0.462-1.54-0.056-1.605,0.667
			c-1.293,0.011-2.265,0.78-2.638,1.723c-0.097,0.245-0.099,0.492-0.151,0.796c-0.082,0.481,0.053,1.013,0.191,1.344
			c0.362,0.875,1.088,1.367,2.036,1.664c0.173,0.055,0.37,0.131,0.571,0.149c0,0.388,0,0.776,0,1.165
			c-0.831-0.096-1.8-0.811-2.527-0.248c-0.143,0.108-0.26,0.269-0.321,0.457C22.366,12.554,23.942,12.754,24.741,12.976z
			 M27.609,10.297c0.138,0.03,0.274,0.06,0.412,0.09c0.158,0.048,0.301,0.135,0.441,0.188c0.043,0.07,0.037,0.176,0.02,0.27
			c-0.068,0.366-0.451,0.492-0.873,0.488C27.609,10.987,27.609,10.643,27.609,10.297z M25.594,7.907
			c-0.458-0.053-0.793-0.367-0.792-0.896c0-0.156,0.019-0.299,0.081-0.398c0.138-0.224,0.41-0.211,0.672-0.319
			c0.013,0,0.027,0,0.04,0C25.594,6.831,25.594,7.369,25.594,7.907z M51.151,32.8c-0.438-1.013-1.224-1.562-2.388-1.852
			c-0.398-0.1-0.861-0.038-1.293-0.109c-0.338-0.026-0.676-0.054-1.014-0.08c-0.113-0.238-0.227-0.479-0.341-0.717
			c-0.298-0.582-0.605-1.137-0.942-1.673c-0.51-0.808-1.064-1.533-1.646-2.261c-0.301-0.325-0.603-0.65-0.903-0.976
			c-0.287-0.354-0.646-0.719-1.002-1.005c-0.488-0.393-0.882-0.907-1.395-1.274c0.025-1.978,0.645-3.519,1.264-4.91
			c0.297-0.557,0.596-1.115,0.893-1.672c0.283-0.736-0.363-1.34-1.053-1.325c-0.161,0.047-0.321,0.094-0.482,0.14
			c-0.527,0.209-1.057,0.419-1.584,0.628c-1.123,0.478-2.258,1.008-3.21,1.673c-0.502,0.351-0.962,0.742-1.435,1.114
			c-0.408,0.323-0.928,0.749-1.244,1.156c-0.377-0.077-0.756-0.154-1.133-0.23c-0.484-0.075-0.97-0.151-1.455-0.228
			c-0.824-0.153-1.693-0.111-2.557-0.25c-0.432-0.013-0.863-0.026-1.295-0.04c-0.341,0-0.682,0-1.023,0
			c-0.331,0.011-0.662,0.021-0.993,0.03c-0.294,0.023-0.589,0.047-0.883,0.069c-0.552,0.094-1.124,0.123-1.645,0.23
			c-0.948,0.195-1.837,0.34-2.698,0.606c-2.766,0.857-5.083,2.045-7.142,3.585c-0.839,0.627-1.772,1.364-2.427,2.171
			c-0.349,0.428-0.765,0.81-1.104,1.254c-0.687,0.902-1.282,1.842-1.826,2.898c-0.21,0.408-0.382,0.836-0.562,1.283
			c-0.063,0.176-0.127,0.352-0.19,0.528c-1.495-0.443-3.097-1.667-3.651-3.047c-0.319-0.795-0.341-2.11-0.02-2.928
			c0.211-0.535,0.492-0.98,0.823-1.393c0.536-0.671,1.329-1.228,2.126-1.634c0.379-0.193,1.264-0.448,1.495-0.736
			c0.547-0.688,0.111-1.517-0.662-1.654c-0.313-0.056-0.58,0.107-0.783,0.189c-0.598,0.241-1.133,0.51-1.645,0.827
			c-1.559,0.968-2.762,2.204-3.36,4.132c-0.231,0.745-0.352,1.944-0.15,2.838c0.493,2.192,1.746,3.468,3.43,4.471
			c0.442,0.263,0.909,0.479,1.414,0.688c0.157,0.06,0.314,0.119,0.472,0.18c-0.037,0.404-0.074,0.809-0.11,1.215
			c0.003,0.207,0.007,0.417,0.01,0.626c0.01,0.206,0.02,0.412,0.03,0.618c0.08,0.469,0.11,0.929,0.221,1.363
			c0.62,2.43,1.724,4.304,3.04,6.034c0.348,0.458,0.754,0.872,1.113,1.314c0.44,0.544,1.009,1.156,1.555,1.593
			c0.247,0.199,0.443,0.474,0.712,0.647c-0.508,1.411-1.016,2.822-1.524,4.231c-0.216,0.692-0.049,1.722,0.23,2.191
			c0.688,1.154,1.695,1.39,3.009,1.901c0.585,0.213,1.17,0.425,1.755,0.638c0.736,0.228,1.715,0.146,2.257-0.188
			c0.601-0.374,0.941-1.045,1.173-1.783c0.054-0.229,0.107-0.458,0.161-0.687c0.338-0.873,0.675-1.747,1.013-2.619
			c0.331,0.065,0.662,0.133,0.993,0.198c0.732,0.169,1.496,0.229,2.257,0.369c0.929,0.171,1.926,0.199,2.979,0.199
			c0.378-0.007,0.755-0.014,1.134-0.02c0.156-0.005,0.313-0.007,0.471-0.011c0.475-0.036,0.949-0.072,1.425-0.109
			c0.673-0.109,1.371-0.06,1.995-0.229c0.117,0.026,0.162,0.338,0.201,0.447c0.16,0.451,0.321,0.903,0.481,1.355
			c0.52,1.324,0.782,2.646,2.267,3.017c1.229,0.307,2.296-0.188,3.141-0.519c1.172-0.457,2.462-0.725,3.139-1.672
			c0.377-0.526,0.538-1.493,0.342-2.36c-0.436-1.277-0.87-2.556-1.305-3.834c0.448-0.332,0.896-0.663,1.344-0.994
			c1.201-0.903,2.346-1.95,3.271-3.128c0.221-0.28,0.446-0.554,0.662-0.847c0.093-0.129,0.187-0.259,0.28-0.388
			c0.188-0.086,0.691-0.019,0.943-0.029c0.746-0.014,1.491-0.026,2.236-0.041c0.736-0.127,1.54-0.734,1.906-1.244
			c0.315-0.439,0.503-0.987,0.611-1.634c0.014-0.656,0.027-1.313,0.041-1.971c0.016-0.567,0.033-1.135,0.05-1.702
			c0.003-0.283,0.007-0.564,0.01-0.847C51.57,33.883,51.355,33.271,51.151,32.8z M49.396,36.704
			c-0.011,0.421-0.021,0.842-0.031,1.264c-0.098,0.627,0.073,1.082-0.199,1.544c-0.113,0.19-0.398,0.427-0.623,0.497
			c-0.883,0.017-1.766,0.033-2.647,0.05c-0.47,0.001-0.991-0.026-1.284,0.15c-0.348,0.208-0.549,0.67-0.782,0.995
			c-0.432,0.601-0.943,1.125-1.404,1.692c-0.243,0.299-0.579,0.594-0.883,0.836c-0.663,0.532-1.284,1.126-1.985,1.624
			c-0.288,0.205-0.576,0.411-0.863,0.616c-0.201,0.142-0.447,0.253-0.592,0.449c-0.326,0.444-0.157,0.931,0.01,1.403
			c0.365,1.056,0.729,2.111,1.094,3.167c0.195,0.552,0.54,1.387-0.09,1.742c-0.509,0.188-1.018,0.378-1.525,0.566
			c-0.512,0.19-1.023,0.379-1.534,0.568c-0.15,0.011-0.301,0.021-0.452,0.03c-0.782,0-0.758-0.628-0.973-1.175
			c-0.311-0.86-0.621-1.72-0.933-2.579c-0.187-0.479-0.261-0.971-0.722-1.175c-0.358-0.159-0.844-0.045-1.225,0.03
			c-0.76,0.147-1.559,0.142-2.347,0.269c-0.498,0.026-0.996,0.054-1.495,0.08c-0.316,0.006-0.635,0.012-0.952,0.019
			c-0.321-0.007-0.642-0.013-0.963-0.019c-0.365-0.024-0.729-0.047-1.093-0.07c-0.947-0.157-1.891-0.217-2.769-0.418
			c-0.515-0.106-1.03-0.212-1.545-0.318c-0.205-0.053-0.448-0.177-0.722-0.13c-0.201,0.034-0.374,0.101-0.511,0.199
			c-0.383,0.276-0.561,1.082-0.752,1.563c-0.324,0.83-0.649,1.66-0.973,2.49c-0.05,0.226-0.1,0.451-0.15,0.677
			c-0.07,0.221-0.195,0.412-0.271,0.607c-0.278,0.198-0.914-0.066-1.154-0.159c-0.521-0.193-1.043-0.386-1.564-0.577
			c-0.329-0.127-0.68-0.214-0.963-0.379c-0.239-0.141-0.53-0.295-0.602-0.598c-0.129-0.546,0.155-1.01,0.301-1.384
			c0.351-0.985,0.702-1.972,1.053-2.957c0.149-0.379,0.551-1.13,0.361-1.623c-0.163-0.424-0.724-0.795-1.063-1.065
			c-0.384-0.307-0.845-0.745-1.153-1.126c-0.29-0.356-0.664-0.653-0.953-1.015c-1.446-1.807-2.754-3.586-3.42-6.193
			c-0.205-0.801-0.318-1.982-0.141-2.907c0.027-0.166,0.053-0.332,0.08-0.499c0.048-0.134,0.159-0.242,0.201-0.408
			c0.033-0.133-0.019-0.288,0.01-0.428c0.026-0.09,0.053-0.179,0.08-0.27c0.292-0.915,0.683-1.784,1.144-2.549
			c2.057-3.409,5.116-5.84,9.007-7.428c0.774-0.314,1.596-0.547,2.438-0.796c1.021-0.305,2.121-0.39,3.27-0.588
			c0.485-0.033,0.97-0.067,1.455-0.1c0.445,0,0.89,0,1.334,0c0.221,0.006,0.441,0.014,0.662,0.021c0.385,0.02,0.77,0.039,1.153,0.06
			c0.998,0.166,1.992,0.163,2.929,0.368c0.465,0.093,0.93,0.187,1.395,0.278c0.271,0.069,0.609,0.19,0.933,0.091
			c0.341-0.107,0.519-0.386,0.743-0.608c0.416-0.414,0.839-0.85,1.303-1.215c0.586-0.46,1.176-0.905,1.836-1.294
			c0.479-0.242,0.957-0.484,1.435-0.727c-0.15,0.395-0.301,0.789-0.451,1.185c-0.216,0.657-0.333,1.368-0.481,2.11
			c-0.033,0.302-0.066,0.604-0.101,0.906c-0.053,0.311-0.14,1.055-0.07,1.385c0.092,0.436,0.389,0.633,0.683,0.865
			c0.364,0.33,0.729,0.658,1.093,0.986c0.341,0.342,0.683,0.684,1.023,1.025c0.287,0.353,0.655,0.648,0.942,1.005
			c0.549,0.684,1.09,1.373,1.564,2.131c0.385,0.613,0.752,1.271,1.054,1.953c0.15,0.339,0.265,0.817,0.542,1.034
			c0.323,0.255,0.588,0.188,1.094,0.269c0.975,0.156,2.484-0.058,2.969,0.589c0.135,0.181,0.24,0.468,0.291,0.717
			C49.443,34.925,49.42,35.814,49.396,36.704z M32.735,24.894c-1.596-1.116-3.693-1.716-6.45-1.683
			c-0.264,0.014-0.527,0.026-0.792,0.04c-0.493,0.08-0.982,0.088-1.444,0.189c-1.476,0.323-2.706,0.781-3.751,1.514
			c-0.554,0.387-1.512,1.09-0.803,1.98c0.222,0.279,0.82,0.466,1.234,0.23c0.189-0.108,0.307-0.28,0.471-0.409
			c0.353-0.274,0.762-0.538,1.194-0.728c0.75-0.327,1.554-0.523,2.478-0.706c0.456-0.091,0.946-0.041,1.435-0.12
			c0.403-0.064,1.163,0.003,1.514,0.061c0.395,0.064,0.754,0.07,1.113,0.159c0.95,0.235,1.775,0.534,2.498,0.986
			c0.211,0.158,0.422,0.318,0.632,0.477c0.157,0.127,0.257,0.293,0.441,0.398c0.546,0.313,1.204-0.056,1.384-0.457
			C34.303,25.9,33.231,25.241,32.735,24.894z M38.252,29.464c-0.197,0.077-0.414,0.059-0.592,0.13
			c-0.52,0.208-0.924,0.608-1.133,1.125c-0.506,1.243,0.361,2.291,1.254,2.6c0.186,0.063,0.469,0.141,0.742,0.1
			c0.877-0.133,1.436-0.547,1.725-1.255C40.84,30.712,39.643,29.447,38.252,29.464z"/>
	</g>
</g>
</svg>
