<?xml version="1.0" encoding="utf-8"?>
<!-- Generator: Adobe Illustrator 16.0.0, SVG Export Plug-In . SVG Version: 6.00 Build 0)  -->
<!DOCTYPE svg PUBLIC "-//W3C//DTD SVG 1.1//EN" "http://www.w3.org/Graphics/SVG/1.1/DTD/svg11.dtd">
<svg version="1.1" id="Капли_1_" xmlns="http://www.w3.org/2000/svg" xmlns:xlink="http://www.w3.org/1999/xlink" x="0px"
	 y="0px" width="44px" height="56px" viewBox="0 0 44 56" enable-background="new 0 0 44 56" xml:space="preserve">
<g id="Капли">
	<g>
		<path fill-rule="evenodd" clip-rule="evenodd" fill="#6FC1F5" d="M43.02,27.313c-0.396-1.588-0.811-3.082-1.375-4.491
			c-0.348-0.868-0.776-1.693-1.144-2.519c-0.21-0.419-0.421-0.836-0.632-1.255c-0.337-0.575-0.59-1.194-0.923-1.763
			c-0.277-0.517-0.555-1.034-0.833-1.553c-0.756-1.283-1.473-2.593-2.256-3.844c-0.982-1.567-1.92-3.146-2.979-4.64
			c-0.966-1.363-1.944-2.711-2.929-4.042c-0.457-0.619-0.953-1.202-1.424-1.803c-0.283-0.362-0.497-0.71-1.154-0.706
			c-0.196,0.081-0.359,0.088-0.512,0.198c-0.266,0.193-0.439,0.559-0.631,0.826c-0.395,0.551-0.789,1.102-1.184,1.653
			c-1.793,2.502-3.585,5.006-5.377,7.509c-0.007,0.002-0.013,0.006-0.02,0.009c-0.659-1.03-1.543-1.993-2.297-2.946
			c-0.242-0.308-0.602-0.749-1.224-0.569c-0.437,0.128-0.682,0.512-0.933,0.827c-0.257,0.322-0.538,0.627-0.792,0.956
			c-0.605,0.782-1.255,1.542-1.835,2.35c-0.68,0.946-1.338,1.9-2.016,2.857c-1.266,1.786-2.396,3.693-3.541,5.596
			c-0.405,0.727-0.81,1.453-1.214,2.181c-0.546,0.93-1.079,1.916-1.525,2.919c-0.154,0.302-0.308,0.604-0.461,0.905
			c-0.373,0.838-0.788,1.654-1.153,2.509c-0.577,1.351-0.992,2.772-1.414,4.292c-0.329,1.182-0.455,2.451-0.682,3.773
			c-0.091,0.529-0.022,1.066-0.11,1.623c-0.047,0.296-0.067,0.944-0.02,1.245c0,0.159,0,0.318,0,0.478
			c0.076,0.472,0.026,0.977,0.1,1.424c0.093,0.564,0.095,1.095,0.21,1.623c0.265,1.209,0.525,2.333,0.943,3.375
			c1.569,3.913,4.417,6.834,8.596,8.146c0.991,0.312,2.034,0.493,3.17,0.697c0.652,0.118,1.375,0.133,2.086,0.149
			c4.149,0.091,7.398-0.825,9.91-2.381c0.512-0.315,0.996-0.673,1.465-1.034c0.197-0.177,0.395-0.353,0.592-0.528
			c0.656-0.524,1.213-1.214,1.715-1.892c0.202-0.272,0.492-0.571,0.622-0.896c0.104-0.057,0.271-0.035,0.411-0.06
			c0.287-0.04,0.575-0.079,0.863-0.12c0.848-0.166,1.66-0.327,2.427-0.567c2.905-0.907,5.237-2.523,6.881-4.689
			c1.057-1.392,1.852-2.992,2.438-4.859C43.818,35.218,43.828,30.567,43.02,27.313z M30.391,39.65
			c-0.02,0.375-0.041,0.751-0.061,1.126c-0.132,0.792-0.189,1.568-0.371,2.279c-1.217,4.784-3.63,7.63-7.974,9.311
			c-0.89,0.344-1.882,0.529-2.929,0.736c-0.467,0.092-0.938,0.071-1.435,0.149c-0.451,0.072-0.958,0.06-1.454,0.06
			c-0.197,0-0.395,0-0.592,0c-0.58-0.092-1.173-0.021-1.725-0.119c-1.193-0.209-2.301-0.361-3.3-0.747
			c-3.739-1.44-5.752-3.695-7.202-7.407c-0.26-0.667-0.385-1.383-0.562-2.131c-0.179-0.759-0.186-1.579-0.321-2.42
			c-0.01-0.361-0.02-0.725-0.03-1.085c-0.055-0.343-0.022-1.062,0.03-1.395c0.03-0.422,0.06-0.843,0.09-1.265
			c0.06-0.448,0.12-0.896,0.18-1.345c0.204-1.015,0.37-2.002,0.652-2.938c0.399-1.318,0.832-2.571,1.354-3.764
			c0.327-0.744,0.727-1.466,1.053-2.2c0.439-0.987,0.947-1.971,1.484-2.888c0.686-1.17,1.283-2.366,1.976-3.515
			c1.393-2.306,2.855-4.54,4.403-6.69c0.615-0.813,1.23-1.627,1.846-2.441c0.288-0.351,0.575-0.702,0.863-1.055
			c0.144,0.183,0.288,0.365,0.431,0.549c0.35,0.459,0.712,0.909,1.053,1.383c1.12,1.556,2.268,3.102,3.31,4.74
			c1.029,1.618,2.058,3.255,3.059,4.918c0.665,1.104,1.218,2.265,1.876,3.386c0.348,0.593,0.609,1.242,0.963,1.843
			c0.177,0.352,0.354,0.702,0.531,1.055c0.753,1.467,1.368,3.052,1.886,4.76c0.288,0.952,0.453,1.959,0.662,2.997
			c0.118,0.586,0.111,1.201,0.21,1.813c0.014,0.223,0.027,0.445,0.041,0.667c0.004,0.232,0.006,0.465,0.01,0.697
			C30.443,38.986,30.433,39.381,30.391,39.65z M41.595,33.407c-0.011,0.248-0.021,0.499-0.03,0.747
			c-0.105,0.631-0.113,1.271-0.24,1.853c-0.169,0.769-0.311,1.47-0.532,2.16c-0.973,3.028-2.834,5.193-5.366,6.682
			c-0.908,0.534-1.914,0.889-3.039,1.225c-0.416,0.124-0.922,0.287-1.395,0.309c0.205-0.423,0.352-0.883,0.502-1.354
			c0.275-0.865,0.476-1.79,0.672-2.768c0.061-0.504,0.12-1.01,0.18-1.514c0.021-0.355,0.041-0.711,0.061-1.065
			c0-0.152,0-0.306,0-0.458c0.049-0.304,0.027-0.946-0.02-1.244c-0.09-0.576-0.025-1.129-0.121-1.673
			c-0.221-1.267-0.354-2.475-0.672-3.614c-0.373-1.342-0.77-2.622-1.283-3.824c-0.278-0.65-0.613-1.282-0.893-1.912
			c-0.205-0.404-0.408-0.81-0.612-1.215c-0.345-0.588-0.603-1.222-0.942-1.803c-0.438-0.803-0.877-1.605-1.314-2.409
			c-0.926-1.559-1.826-3.122-2.789-4.641c-0.654-0.995-1.311-1.991-1.965-2.987c-0.301-0.431-0.602-0.862-0.903-1.294
			c2.206-3.086,4.413-6.174,6.62-9.259c0.138,0.068,0.342,0.413,0.441,0.547c0.322,0.434,0.664,0.853,0.982,1.294
			c1.166,1.619,2.355,3.232,3.441,4.938c2.884,4.54,5.707,9.145,7.793,14.479c0.505,1.289,0.771,2.706,1.094,4.172
			c0.183,0.83,0.164,1.713,0.311,2.609c0.01,0.361,0.021,0.723,0.03,1.084C41.648,32.742,41.637,33.139,41.595,33.407z
			 M10.43,44.479c-0.127-0.215-0.254-0.431-0.381-0.646c-0.436-0.741-0.743-1.592-1.013-2.489c-0.393-1.308-0.303-3.263,0-4.61
			c0.12-0.504,0.241-1.009,0.361-1.514c0.117-0.654-0.504-1.108-1.104-1.096c-0.278,0.114-0.494,0.128-0.662,0.338
			c-0.375,0.472-0.448,1.458-0.602,2.151c-0.661,2.977,0.004,5.711,1.053,7.758c0.264,0.514,0.672,1.404,1.104,1.723
			c0.148,0.107,0.397,0.25,0.692,0.198c0.557-0.097,1.085-0.579,0.862-1.295C10.677,44.794,10.534,44.645,10.43,44.479z"/>
	</g>
</g>
</svg>
