<?xml version="1.0" encoding="utf-8"?>
<!-- Generator: Adobe Illustrator 16.0.0, SVG Export Plug-In . SVG Version: 6.00 Build 0)  -->
<!DOCTYPE svg PUBLIC "-//W3C//DTD SVG 1.1//EN" "http://www.w3.org/Graphics/SVG/1.1/DTD/svg11.dtd">
<svg version="1.1" id="Палитра_1_" xmlns="http://www.w3.org/2000/svg" xmlns:xlink="http://www.w3.org/1999/xlink" x="0px"
	 y="0px" width="57px" height="57px" viewBox="0 0 57 57" enable-background="new 0 0 57 57" xml:space="preserve">
<g id="Палитра">
	<g>
		<path fill-rule="evenodd" clip-rule="evenodd" fill="#47CEA0" d="M56.854,5.687c-0.411-0.943-1.179-1.062-2.208-1.379
			c-0.655-0.19-1.311-0.38-1.967-0.569c-2.986-0.866-5.975-1.732-8.963-2.599c-0.85-0.246-1.7-0.493-2.551-0.738
			c-0.547-0.17-1.064-0.419-1.764-0.4c-0.162,0.03-0.323,0.06-0.484,0.089c-0.387,0.123-0.744,0.371-0.968,0.661
			c-0.331,0.427-0.443,1.013-0.626,1.598c-0.171,0.566-0.342,1.133-0.514,1.699c-0.088,0.296-0.175,0.593-0.262,0.889
			c0,0.006,0,0.015,0,0.021c-0.098-0.47-0.195-0.939-0.293-1.408c-0.178-0.703-0.633-1.212-1.27-1.459
			c-0.527-0.205-1.172-0.081-1.694,0.039c-0.819,0.163-1.64,0.326-2.46,0.489c-3.317,0.68-6.635,1.36-9.951,2.039
			c-0.719,0.146-1.439,0.294-2.158,0.439c-0.86,0.211-1.367,0.234-1.835,0.85c-0.477,0.628-0.472,1.379-0.262,2.269
			c0.289,1.382,0.578,2.764,0.867,4.146c-0.111-0.146-0.222-0.293-0.333-0.44c-0.5-0.674-0.923-1.386-1.905-1.589
			c-0.373-0.076-0.823,0.002-1.089,0.111c-0.333,0.135-0.577,0.363-0.847,0.559c-0.447,0.333-0.894,0.666-1.341,0.999
			c-2.578,1.922-5.156,3.845-7.733,5.766c-0.84,0.627-1.68,1.253-2.521,1.879c-0.422,0.307-0.965,0.605-1.28,1.02
			c-0.236,0.308-0.522,0.82-0.424,1.429c0.117,0.716,0.441,1.062,0.787,1.529c0.295,0.389,0.591,0.778,0.887,1.169
			c1.317,1.733,2.635,3.471,3.952,5.205c4.863,6.408,9.727,12.817,14.589,19.225c1.408,1.854,2.816,3.71,4.225,5.566
			c0.245,0.322,0.491,0.646,0.736,0.969c0.505,0.682,0.807,1.064,1.855,1.229c0.591,0.092,1.11-0.28,1.412-0.499
			c0.799-0.597,1.6-1.192,2.4-1.788c3.22-2.396,6.439-4.791,9.659-7.185c0.051-0.031,0.25,0.044,0.332,0.069
			c0.333,0.1,0.666,0.2,0.998,0.301c0.38,0.103,0.76,0.205,1.14,0.309c0.896,0.172,1.646-0.406,1.976-0.879
			c0.208-0.296,0.282-0.683,0.404-1.069c0.191-0.649,0.383-1.298,0.574-1.948c0.625-2.118,1.25-4.237,1.875-6.354
			c2.174-7.354,4.35-14.71,6.523-22.063c0.695-2.371,1.392-4.743,2.088-7.114C56.688,7.933,57.27,6.642,56.854,5.687z M18.471,7.175
			c5.256-1.072,10.513-2.144,15.77-3.217c0.013,0,0.026,0,0.04,0c0.353,1.705,0.706,3.41,1.059,5.116
			c-0.76,2.561-1.52,5.122-2.278,7.684c-1.536,5.218-3.072,10.438-4.608,15.657c-0.719,2.425-1.438,4.85-2.157,7.274
			c-0.285,0.896-0.789,2.118-0.232,3.048c0.548,0.914,1.65,1.021,2.763,1.358c2.177,0.634,4.356,1.266,6.534,1.899
			c-2.826,0.575-5.654,1.151-8.48,1.729c-2.802-13.502-5.606-27.007-8.409-40.508C18.471,7.201,18.471,7.189,18.471,7.175z
			 M27.152,54.986c-0.014,0-0.027,0-0.041,0c-8.36-11.022-16.724-22.05-25.085-33.072c4.292-3.205,8.584-6.409,12.875-9.613
			c0.151,0.053,0.291,0.355,0.383,0.48c0.326,0.429,0.652,0.858,0.978,1.288c0.726,0.952,1.452,1.905,2.178,2.857
			c0.238,1.166,0.477,2.333,0.716,3.498c1.435,6.9,2.87,13.803,4.305,20.703c0.383,1.849,0.766,3.697,1.149,5.546
			c0.254,1.075,0.27,2.052,1.039,2.628c0.703,0.526,1.39,0.448,2.329,0.229c0.329-0.063,0.659-0.127,0.988-0.189
			c2.638-0.539,5.276-1.079,7.914-1.618C33.639,50.145,30.395,52.565,27.152,54.986z M43.304,46.194
			c-0.007,0.006-0.013,0.014-0.021,0.02c-5.158-1.492-10.318-2.984-15.476-4.477c-0.033-0.179,0.192-0.707,0.252-0.899
			c0.208-0.706,0.417-1.412,0.625-2.117c0.769-2.608,1.539-5.217,2.309-7.825c2.843-9.631,5.687-19.265,8.53-28.896
			c5.161,1.493,10.324,2.984,15.486,4.477C51.107,19.715,47.205,32.956,43.304,46.194z M38.354,39.35
			c-0.513,1.259,0.614,2.773,1.936,2.567c0.82-0.126,1.352-0.532,1.623-1.198c0.459-1.126-0.313-2.137-1.088-2.448
			c-0.238-0.095-0.512-0.124-0.848-0.12c-0.176,0.069-0.373,0.056-0.535,0.12C38.941,38.47,38.555,38.854,38.354,39.35z"/>
	</g>
</g>
</svg>
