<?xml version="1.0" encoding="utf-8"?>
<!-- Generator: Adobe Illustrator 16.0.0, SVG Export Plug-In . SVG Version: 6.00 Build 0)  -->
<!DOCTYPE svg PUBLIC "-//W3C//DTD SVG 1.1//EN" "http://www.w3.org/Graphics/SVG/1.1/DTD/svg11.dtd">
<svg version="1.1" id="Солнцезащита_1_"
	 xmlns="http://www.w3.org/2000/svg" xmlns:xlink="http://www.w3.org/1999/xlink" x="0px" y="0px" width="56px" height="56px"
	 viewBox="0 0 56 56" enable-background="new 0 0 56 56" xml:space="preserve">
<g id="Солнцезащита">
	<g>
		<path fill-rule="evenodd" clip-rule="evenodd" fill="#EED844" d="M26.889,7.248c0,1.127-0.161,1.988,0.62,2.384
			c0.137,0.069,0.354,0.161,0.587,0.122c1.165-0.197,1.008-1.141,1.008-2.452c0-1.399,0-2.799,0-4.199c0-0.584,0.1-1.81-0.078-2.221
			C28.85,0.475,28.492,0.193,27.896,0.2c-0.422,0.17-0.622,0.15-0.853,0.528c-0.255,0.417-0.155,1.318-0.155,1.968
			C26.889,4.213,26.889,5.73,26.889,7.248z M12.849,14.514c0.498,0.495,1.188,1.354,2.104,0.638c0.33-0.26,0.507-0.936,0.233-1.387
			c-0.112-0.183-0.293-0.334-0.443-0.483c-1.336-1.322-2.672-2.646-4.008-3.968c-0.422-0.418-1.031-1.297-1.805-1.297
			c-0.182,0.07-0.351,0.057-0.498,0.143C7.967,8.431,7.664,9.148,8.054,9.731C9.652,11.325,11.25,12.919,12.849,14.514z
			 M41.039,15.151c0.876,0.688,1.537-0.075,2.026-0.561c1.624-1.62,3.248-3.239,4.872-4.859c0.525-0.783-0.107-1.716-0.986-1.715
			c-0.168,0.067-0.336,0.051-0.476,0.132c-0.236,0.137-0.409,0.362-0.598,0.549c-0.366,0.363-0.731,0.727-1.097,1.09
			c-1.077,1.065-2.155,2.132-3.232,3.198c-0.383,0.381-1.109,0.861-0.82,1.683C40.797,14.86,40.893,15.037,41.039,15.151z
			 M42.977,30.42c0.089-0.438,0.066-0.872,0.145-1.341c0.068-0.418,0.104-1.036,0.033-1.484c-0.016-0.318-0.029-0.638-0.045-0.956
			c-0.063-0.458-0.125-0.917-0.188-1.375c-0.229-1.027-0.48-1.98-0.842-2.857c-1.903-4.607-5.461-7.805-10.674-9.125
			c-1.145-0.289-2.434-0.401-3.865-0.384c-0.169,0.007-0.339,0.015-0.509,0.021c-0.38,0.037-0.76,0.074-1.141,0.11
			c-1.096,0.203-2.123,0.376-3.056,0.735c-4.481,1.731-7.482,4.707-9.223,9.158c-0.337,0.86-0.508,1.806-0.709,2.803
			c-0.414,2.063-0.093,4.748,0.421,6.42c1.38,4.489,4.3,7.848,8.393,9.63c0.966,0.421,1.993,0.74,3.133,1.022
			c0.455,0.113,0.915,0.123,1.406,0.209c0.401,0.07,0.841,0.017,1.284,0.088c0.273,0.004,0.546,0.007,0.82,0.011
			c0.395-0.025,0.789-0.051,1.185-0.076c0.962-0.166,1.859-0.268,2.702-0.527c4.678-1.45,7.961-4.482,9.787-8.762
			C42.467,32.729,42.732,31.626,42.977,30.42z M40.885,29.364c-0.053,0.352-0.104,0.703-0.156,1.056
			c-0.211,0.941-0.451,1.813-0.797,2.616c-1.536,3.581-4.381,6.139-8.305,7.354c-0.718,0.223-1.484,0.31-2.303,0.451
			c-0.332,0.021-0.664,0.044-0.996,0.066c-0.252-0.005-0.502-0.009-0.753-0.012c-0.345-0.055-0.685-0.014-0.996-0.065
			c-0.354-0.048-0.709-0.097-1.063-0.145c-1.015-0.224-1.931-0.5-2.779-0.867c-3.564-1.545-6.053-4.327-7.264-8.213
			c-0.451-1.447-0.744-3.688-0.388-5.496c0.169-0.854,0.309-1.671,0.598-2.407c1.509-3.846,4.064-6.387,7.939-7.882
			c0.764-0.295,1.611-0.438,2.502-0.605c0.325-0.031,0.649-0.064,0.974-0.098c0.159-0.008,0.317-0.015,0.476-0.021
			c6.345-0.004,10.49,3.551,12.379,7.958c0.387,0.903,0.631,1.885,0.853,2.979c0.041,0.374,0.081,0.747,0.121,1.121
			c0.004,0.157,0.008,0.314,0.012,0.473C41.014,28.072,40.957,28.953,40.885,29.364z M9.615,28.145
			c0.052-0.293-0.059-0.546-0.155-0.704c-0.39-0.639-1.013-0.538-2.015-0.538c-2.163,0-4.326,0-6.489,0
			c-0.352,0.15-0.595,0.195-0.786,0.494c-0.379,0.594-0.072,1.292,0.388,1.561c0.438,0.258,1.62,0.144,2.303,0.144
			c1.461,0,2.923,0,4.385,0C8.492,29.101,9.425,29.219,9.615,28.145z M55.832,27.44c-0.39-0.639-1.014-0.538-2.016-0.538
			c-2.162,0-4.326,0-6.488,0c-0.352,0.15-0.596,0.195-0.786,0.494c-0.379,0.594-0.072,1.292,0.388,1.561
			c0.438,0.258,1.619,0.144,2.303,0.144c1.462,0,2.924,0,4.385,0c1.246,0,2.18,0.118,2.369-0.956
			C56.039,27.852,55.928,27.599,55.832,27.44z M14.089,40.577c-0.163,0.07-0.318,0.072-0.454,0.154
			c-0.206,0.124-0.364,0.34-0.532,0.506c-0.369,0.365-0.738,0.732-1.107,1.1c-1.104,1.092-2.208,2.184-3.311,3.275
			c-0.21,0.216-0.421,0.433-0.631,0.647c-0.327,0.488-0.134,1.2,0.244,1.485c0.866,0.655,1.557-0.184,2.015-0.638
			c1.1-1.096,2.2-2.191,3.3-3.287c0.347-0.344,0.694-0.689,1.041-1.034c0.185-0.184,0.406-0.352,0.542-0.582
			C15.684,41.38,14.956,40.566,14.089,40.577z M47.406,45.712c-1.303-1.291-2.606-2.581-3.909-3.87
			c-0.214-0.213-0.429-0.426-0.642-0.638c-0.33-0.328-0.537-0.634-1.219-0.627c-0.166,0.071-0.327,0.079-0.465,0.165
			c-0.396,0.249-0.693,0.944-0.365,1.483c0.131,0.215,0.346,0.376,0.521,0.551c0.351,0.348,0.701,0.696,1.052,1.044
			c1.089,1.085,2.178,2.169,3.267,3.254c0.519,0.515,1.196,1.348,2.114,0.615c0.129-0.103,0.209-0.265,0.277-0.429
			C48.344,46.521,47.753,46.056,47.406,45.712z M29.025,46.921c-0.176-0.409-0.533-0.689-1.129-0.682
			c-0.422,0.17-0.622,0.148-0.853,0.527c-0.255,0.416-0.155,1.318-0.155,1.968c0,1.517,0,3.033,0,4.551
			c0,1.129-0.161,1.99,0.62,2.386c0.137,0.069,0.354,0.159,0.587,0.12c1.165-0.194,1.008-1.138,1.008-2.451c0-1.399,0-2.8,0-4.199
			C29.104,48.557,29.203,47.331,29.025,46.921z"/>
	</g>
</g>
</svg>
