<?xml version="1.0" encoding="utf-8"?>
<!-- Generator: Adobe Illustrator 16.0.0, SVG Export Plug-In . SVG Version: 6.00 Build 0)  -->
<!DOCTYPE svg PUBLIC "-//W3C//DTD SVG 1.1//EN" "http://www.w3.org/Graphics/SVG/1.1/DTD/svg11.dtd">
<svg version="1.1" id="теплообмен_1_" xmlns="http://www.w3.org/2000/svg" xmlns:xlink="http://www.w3.org/1999/xlink"
	 x="0px" y="0px" width="52px" height="54px" viewBox="0 0 52 54" enable-background="new 0 0 52 54" xml:space="preserve">
<g id="теплообмен">
	<g>
		<path fill-rule="evenodd" clip-rule="evenodd" fill="#F45555" d="M3.015,22.66c0.813,0.151,1.265-0.824,1.575-1.256
			c1.15-1.565,2.301-3.133,3.451-4.699c0.321-0.447,1.231-1.341,0.782-2.082c-0.275-0.452-0.956-0.68-1.484-0.298
			c-0.292,0.211-0.556,0.704-0.772,1.007c-0.548,0.749-1.097,1.499-1.645,2.249c-0.01,0.007-0.02,0.014-0.03,0.021
			c0.23-0.646,0.404-1.292,0.652-1.912c0.291-0.728,0.622-1.423,0.933-2.121c0.528-1.187,1.281-2.276,2.006-3.285
			c1.993-2.774,4.658-4.988,8.014-6.402c1.52-0.642,3.165-1.052,4.995-1.415c0.837-0.166,1.724-0.147,2.618-0.288
			c0.411-0.014,0.822-0.026,1.234-0.04c0.411,0,0.823,0,1.233,0c0.221,0.003,0.441,0.006,0.662,0.01
			c0.495,0.036,0.99,0.073,1.484,0.11c0.221,0.02,0.441,0.039,0.662,0.06c0.784,0.137,1.563,0.196,2.297,0.378
			c2.739,0.674,5.087,1.566,7.082,2.958c0.479,0.333,0.939,0.663,1.395,1.015c0.277,0.245,0.555,0.491,0.832,0.738
			c0.218,0.201,0.436,0.404,0.652,0.606c0.287,0.308,0.575,0.617,0.862,0.926c0.493,0.614,0.994,1.222,1.454,1.872
			c1.608,2.271,2.715,4.951,3.562,7.985c0.183,0.653,0.282,1.34,0.421,2.032c0.088,0.44,0.062,0.866,0.311,1.135
			c0.302,0.323,0.887,0.479,1.334,0.169c0.209-0.145,0.363-0.376,0.422-0.667c0.047-0.23-0.021-0.505-0.061-0.707
			c-0.095-0.503-0.137-0.977-0.25-1.454c-0.604-2.542-1.385-4.798-2.447-6.86C43.43,5.032,36.684,0.063,25.303,0.137
			c-0.297,0.01-0.595,0.021-0.893,0.029c-0.628,0.051-1.257,0.101-1.886,0.148c-0.558,0.08-1.117,0.16-1.675,0.24
			c-1.101,0.238-2.155,0.451-3.16,0.767C12.943,2.811,9.332,5.624,6.736,9.257c-0.555,0.777-1.027,1.596-1.524,2.439
			c-0.624,1.059-1.104,2.22-1.585,3.426c-0.152,0.383-0.29,0.774-0.421,1.185c-0.05,0.152-0.101,0.306-0.151,0.458
			c-0.096-0.12-0.179-0.791-0.23-0.995c-0.154-0.671-0.308-1.342-0.461-2.013c-0.091-0.361-0.123-0.714-0.371-0.915
			c-0.454-0.366-1.133-0.349-1.484,0.108c-0.106,0.139-0.176,0.312-0.211,0.52c-0.041,0.24,0.056,0.456,0.1,0.637
			c0.087,0.404,0.174,0.81,0.261,1.215c0.408,1.805,0.815,3.61,1.224,5.416C2.094,21.581,2.125,22.491,3.015,22.66z M17.299,32.906
			c0.26-1.38,0.495-2.636,0.953-3.804c0.641-1.636,1.377-3.137,1.926-4.86c0.296-0.931,0.479-1.901,0.682-2.947
			c0.04-0.404,0.08-0.809,0.121-1.215c0.003-0.191,0.006-0.384,0.01-0.577c0-0.406,0.009-0.81-0.05-1.165
			c-0.068-0.409-0.076-0.782-0.17-1.155c-0.282-1.116-0.675-2.03-1.264-2.828c-0.322-0.436-0.725-1.059-1.464-1.064
			c-0.117,0.026-0.234,0.053-0.351,0.079c-0.393,0.168-0.774,0.7-0.542,1.284c0.109,0.276,0.334,0.372,0.501,0.578
			c0.191,0.235,0.382,0.47,0.542,0.736c0.639,1.063,1.027,3.177,0.702,4.899c-0.27,1.425-0.54,2.693-1.013,3.893
			c-1.146,2.91-2.573,5.562-2.698,9.509c-0.079,2.504,0.51,4.504,1.444,6.025c0.264,0.429,0.77,1.377,1.475,1.314
			c0.639-0.059,1.225-0.646,0.923-1.374c-0.093-0.225-0.279-0.364-0.412-0.549c-0.222-0.307-0.442-0.655-0.602-1.015
			c-0.317-0.715-0.525-1.474-0.702-2.351c-0.071-0.352-0.038-0.704-0.1-1.085c-0.058-0.351-0.056-0.874,0-1.225
			C17.27,33.625,17.23,33.267,17.299,32.906z M26.135,32.896c0.266-1.399,0.51-2.67,0.974-3.854c0.625-1.594,1.351-3.06,1.886-4.74
			c0.291-0.911,0.478-1.86,0.682-2.877c0.047-0.458,0.094-0.916,0.141-1.374c0.004-0.188,0.007-0.379,0.01-0.567
			c0-0.429,0.003-0.852-0.06-1.225c-0.067-0.396-0.079-0.756-0.171-1.116c-0.277-1.097-0.674-2.004-1.254-2.788
			c-0.322-0.435-0.727-1.059-1.464-1.064c-0.117,0.026-0.234,0.053-0.352,0.079c-0.37,0.158-0.766,0.651-0.562,1.235
			c0.102,0.287,0.307,0.386,0.481,0.587c0.198,0.228,0.393,0.463,0.552,0.727c0.653,1.084,1.065,3.175,0.732,4.939
			c-0.066,0.388-0.134,0.776-0.201,1.165c-0.285,1.137-0.588,2.196-0.992,3.206c-0.405,1.008-0.861,1.971-1.264,2.997
			c-0.433,1.1-0.693,2.253-0.973,3.514c-0.169,0.765-0.274,1.638-0.281,2.529c-0.018,2.56,0.497,4.513,1.475,6.075
			c0.262,0.419,0.749,1.327,1.444,1.265c0.621-0.056,1.216-0.627,0.934-1.345c-0.101-0.256-0.303-0.41-0.451-0.617
			c-0.221-0.307-0.434-0.659-0.592-1.016c-0.336-0.757-0.535-1.568-0.713-2.51c-0.066-0.352-0.018-0.705-0.08-1.084
			c-0.059-0.361-0.034-0.877,0.02-1.216C26.082,33.513,26.109,33.204,26.135,32.896z M34.973,32.886
			c0.266-1.407,0.516-2.683,0.982-3.874c0.633-1.615,1.363-3.101,1.906-4.81c0.273-0.861,0.449-1.762,0.642-2.718
			c0.095-0.467,0.069-0.96,0.15-1.454c0.077-0.474,0.021-1.34-0.05-1.761c-0.064-0.383-0.072-0.729-0.16-1.076
			c-0.281-1.108-0.67-2.011-1.244-2.808c-0.307-0.426-0.776-1.09-1.484-1.096c-0.111,0.023-0.221,0.047-0.332,0.068
			c-0.385,0.158-0.771,0.637-0.592,1.216c0.113,0.363,0.404,0.488,0.612,0.747c0.173,0.215,0.337,0.444,0.481,0.688
			c0.648,1.094,1,3.185,0.672,4.918c-0.294,1.558-0.63,2.919-1.153,4.222c-0.44,1.099-0.925,2.146-1.364,3.266
			c-0.412,1.056-0.645,2.169-0.912,3.375c-0.168,0.757-0.271,1.624-0.271,2.51c0,2.541,0.492,4.448,1.455,6.015
			c0.262,0.426,0.764,1.357,1.465,1.295c0.627-0.057,1.215-0.628,0.922-1.364c-0.094-0.236-0.283-0.377-0.421-0.568
			c-0.235-0.326-0.462-0.701-0.632-1.085c-0.319-0.721-0.514-1.5-0.682-2.39c-0.07-0.367-0.025-0.737-0.091-1.135
			c-0.062-0.375-0.036-0.914,0.021-1.265C34.919,33.497,34.945,33.19,34.973,32.886z M51.613,40.164
			c-0.078-0.414-0.154-0.83-0.231-1.245c-0.348-1.766-0.695-3.531-1.043-5.297c-0.06-0.325-0.12-0.65-0.181-0.976
			c-0.129-0.462-0.603-0.94-1.193-0.955c-0.179,0.068-0.339,0.053-0.481,0.139c-0.238,0.143-0.403,0.403-0.571,0.618
			c-0.305,0.363-0.609,0.729-0.913,1.094c-1.033,1.234-2.067,2.47-3.1,3.705c-0.37,0.474-1.455,1.351-0.942,2.19
			c0.223,0.365,0.861,0.648,1.363,0.348c0.354-0.211,0.697-0.738,0.953-1.065c0.622-0.745,1.244-1.493,1.865-2.24
			c0.011-0.006,0.021-0.013,0.031-0.02c-0.533,1.495-0.994,3.032-1.746,4.313c-0.273,0.484-0.549,0.969-0.822,1.453
			c-0.484,0.77-1.008,1.503-1.555,2.211c-2.353,3.039-5.625,5.19-9.76,6.472c-1.185,0.366-2.467,0.547-3.822,0.787
			c-0.594,0.104-1.199,0.05-1.824,0.147c-0.535,0.087-1.146,0.051-1.726,0.051c-0.311-0.003-0.622-0.007-0.933-0.01
			c-0.338-0.017-0.675-0.032-1.013-0.05c-0.818-0.132-1.637-0.109-2.407-0.27c-0.833-0.171-1.654-0.288-2.427-0.518
			c-1.202-0.356-2.304-0.767-3.37-1.234c-1.02-0.448-1.96-1.055-2.829-1.663c-3.413-2.387-5.768-5.76-7.423-9.897
			c-0.496-1.239-0.825-2.568-1.173-3.963c-0.077-0.431-0.154-0.862-0.231-1.295c-0.057-0.292-0.044-0.574-0.17-0.786
			c-0.501-0.84-1.713-0.536-1.875,0.418c-0.05,0.296,0.079,0.776,0.13,1.036c0.148,0.745,0.262,1.457,0.451,2.141
			c0.802,2.89,1.816,5.394,3.23,7.647c2.805,4.471,6.699,7.662,12.277,9.389c0.968,0.3,1.999,0.477,3.06,0.688
			c0.501,0.066,1.003,0.134,1.504,0.199c0.646,0.047,1.291,0.093,1.936,0.14c0.228,0.004,0.455,0.007,0.682,0.011
			c0.421,0,0.843,0,1.264,0c0.228-0.007,0.455-0.015,0.683-0.021c0.395-0.021,0.789-0.039,1.184-0.06
			c0.957-0.155,1.918-0.179,2.799-0.369c1.271-0.275,2.484-0.485,3.6-0.916c0.943-0.362,1.922-0.671,2.759-1.154
			c0.977-0.566,1.937-1.08,2.829-1.713c2.236-1.587,4.104-3.629,5.586-5.965c0.875-1.377,1.629-2.836,2.277-4.45
			c0.154-0.383,0.284-0.785,0.441-1.186c0.084-0.249,0.168-0.497,0.251-0.746c0.003,0,0.007,0,0.01,0
			c0.175,0.879,0.349,1.759,0.522,2.639c0.104,0.472,0.12,1.054,0.371,1.384c0.354,0.468,1.186,0.507,1.564,0.029
			c0.111-0.14,0.193-0.314,0.23-0.527C51.746,40.576,51.653,40.351,51.613,40.164z"/>
	</g>
</g>
</svg>
