<?xml version="1.0" encoding="utf-8"?>
<!-- Generator: Adobe Illustrator 16.0.0, SVG Export Plug-In . SVG Version: 6.00 Build 0)  -->
<!DOCTYPE svg PUBLIC "-//W3C//DTD SVG 1.1//EN" "http://www.w3.org/Graphics/SVG/1.1/DTD/svg11.dtd">
<svg version="1.1" id="тишина_1_" xmlns="http://www.w3.org/2000/svg" xmlns:xlink="http://www.w3.org/1999/xlink" x="0px"
	 y="0px" width="40px" height="53px" viewBox="0 0 40 53" enable-background="new 0 0 40 53" xml:space="preserve">
<g id="тишина">
	<g>
		<path fill-rule="evenodd" clip-rule="evenodd" fill="#C27CD6" d="M16.703,16.902c-0.187-0.311-0.375-0.618-0.562-0.927
			c-1.709-2.763-3.28-5.657-4.547-8.854c-0.337-0.85-0.524-1.783-0.723-2.778c-0.047-0.412-0.094-0.824-0.14-1.235
			c-0.01-0.349-0.021-0.697-0.03-1.047c0-0.168,0-0.338,0-0.506c0.052-0.331,0.063-0.733-0.05-0.987
			C10.495,0.218,10.154-0.003,9.637,0C9.295,0.142,9.099,0.139,8.904,0.428C8.65,0.805,8.693,1.534,8.693,2.151
			C8.696,2.381,8.7,2.609,8.703,2.839c0.047,0.505,0.094,1.01,0.14,1.514c0.227,1.212,0.43,2.34,0.833,3.366
			c1.004,2.552,2.161,4.946,3.493,7.19c0.435,0.733,0.87,1.469,1.305,2.201c0.256,0.416,0.577,0.725,0.662,1.305
			c0.021,0.146-0.028,0.344-0.09,0.419c-0.344,0.172-0.689,0.345-1.034,0.518c-0.816,0.415-1.633,0.83-2.449,1.245
			c-0.375,0.188-0.887,0.35-1.114,0.688c-0.299,0.443-0.152,0.899,0.1,1.254c0.479,0.691,0.957,1.381,1.436,2.072
			c0.007,0.006,0.014,0.013,0.02,0.021c-0.441,0.328-0.883,0.656-1.325,0.985c-0.313,0.222-0.675,0.414-0.803,0.817
			c-0.292,0.919,0.693,1.299,1.174,1.612c0.238,0.153,0.475,0.306,0.713,0.458c0.007,0.011,0.013,0.021,0.02,0.031
			c-0.341,0.381-0.683,0.763-1.024,1.145c-0.198,0.244-0.448,0.414-0.552,0.757c-0.063,0.208-0.014,0.468,0.021,0.667
			c0.061,0.358,0.092,0.979,0.03,1.365c-0.037,0.302-0.074,0.604-0.11,0.906c-0.195,0.881-0.498,1.535-0.974,2.121
			c-0.546,0.674-1.567,0.924-2.59,1.126c-0.264,0.026-0.529,0.054-0.793,0.08c-0.39,0.063-1.045,0.092-1.486,0.039
			c-0.284-0.018-0.569-0.033-0.853-0.05c-0.215-0.035-0.497-0.099-0.733-0.05C1.096,36.978,0.286,37.936,0,39.62
			c0,0.47,0,0.942,0,1.413c0.003,0.479,0.007,0.957,0.01,1.436c0,0.191,0,0.384,0,0.577c0,0.544,0,1.089,0,1.634
			c0,0.244-0.033,0.546,0.02,0.757s0.171,0.42,0.321,0.538c0.634,0.497,1.473,0.152,1.646-0.538c0.089-0.355,0.02-1.061,0.02-1.475
			c-0.003-1.035-0.006-2.072-0.01-3.107c0-0.696-0.068-1.499,0.281-1.853c0.146-0.146,0.426-0.306,0.652-0.358
			c0.438,0.03,0.877,0.06,1.315,0.09c0.341-0.004,0.683-0.007,1.023-0.01c0.144-0.004,0.288-0.007,0.432-0.011
			c0.385-0.039,0.77-0.08,1.154-0.119c1.003-0.197,1.913-0.412,2.661-0.857c1.301-0.772,2.097-1.987,2.52-3.635
			c0.114-0.444,0.13-0.92,0.21-1.413c0.087-0.535-0.008-1.147-0.02-1.664c0.649-0.728,1.298-1.454,1.947-2.182
			c0.182-0.289,0.167-0.774-0.01-1.056c-0.184-0.293-0.568-0.462-0.863-0.646c-0.238-0.153-0.475-0.306-0.713-0.459
			c0.107-0.079,0.214-0.159,0.321-0.238c0.208-0.16,0.415-0.319,0.623-0.479c0.239-0.17,0.534-0.329,0.692-0.578
			c0.156-0.243,0.194-0.669,0.061-0.966c-0.509-0.729-1.018-1.46-1.526-2.19c0.294-0.15,0.589-0.299,0.883-0.448
			c0.629-0.322,1.258-0.645,1.887-0.967c0.249-0.144,0.535-0.227,0.753-0.398c0.237-0.186,0.427-0.47,0.582-0.736
			c0.288-0.495,0.373-1.553,0.161-2.222C16.966,17.244,16.814,17.077,16.703,16.902z M5.029,11.663
			c0.616-0.097,1.041-0.396,1.254-0.887c0.482-1.109-0.397-2.098-1.496-2.082C4.661,8.721,4.534,8.747,4.407,8.773
			C3.975,8.94,3.66,9.252,3.493,9.681C3.11,10.664,4.012,11.821,5.029,11.663z M39.972,38.036c-0.03-0.256-0.061-0.512-0.091-0.767
			c-0.218-0.996-0.557-1.788-1.244-2.312c-0.525-0.399-1.434-0.723-2.379-0.487c-0.383,0.095-0.654,0.282-0.964,0.417
			c-0.172-0.169-0.291-0.43-0.442-0.617c-0.525-0.65-1.838-1.263-3.102-0.946c-0.424,0.107-0.652,0.306-0.983,0.449
			c-0.007,0.006-0.013,0.013-0.021,0.021c-0.601-1.122-2.314-1.879-3.854-1.136c-0.004-1.873-0.008-3.745-0.011-5.618
			c0-0.73,0-1.461,0-2.19c0-0.358,0.04-0.785-0.03-1.096c-0.333-1.492-1.393-2.406-3.262-2.38c-0.111,0.009-0.221,0.02-0.332,0.029
			c-0.252,0.048-0.502,0.094-0.723,0.18c-0.78,0.3-1.316,0.824-1.717,1.503c-0.146,0.249-0.267,0.563-0.33,0.877
			c-0.014,1.032-0.027,2.065-0.041,3.098c-0.003,0.361-0.006,0.724-0.01,1.086c0,0.384,0,0.77,0,1.155
			c-0.017,1.911-0.033,3.824-0.051,5.736c-0.026,3.313-0.053,6.627-0.08,9.94c0.069,0.329,0.248,0.616,0.371,0.905
			c0.299,0.693,0.596,1.389,0.895,2.083c0.564,1.316,1.131,2.635,1.695,3.952c0.202,0.467,0.448,1.194,1.215,1.067
			c0.556-0.094,1.09-0.585,0.863-1.295c-0.352-0.824-0.702-1.647-1.054-2.471c-0.663-1.534-1.325-3.068-1.987-4.602
			c0.04-4.402,0.08-8.805,0.12-13.206c0.017-1.849,0.034-3.699,0.05-5.548c0-0.216,0-0.432,0-0.646c0-0.977,0.033-1.479,0.744-1.764
			c0.143-0.03,0.287-0.06,0.431-0.09c0.567-0.092,1.005,0.188,1.155,0.527c0.113,0.262,0.069,0.73,0.069,1.096
			c0,0.761,0,1.521,0,2.282c0.004,2.169,0.007,4.342,0.011,6.513c0,1.226,0.09,2.521-0.08,3.614
			c-0.004,0.31-0.008,0.618-0.011,0.928c0,0.881-0.033,2.059,0.492,2.439c0.662,0.48,1.464,0.046,1.606-0.627
			c0.003-0.465,0.006-0.93,0.01-1.395c0-1.273-0.065-2.543,0.291-3.446c0.166-0.421,0.414-1.057,1.094-0.946
			c0.662,0.107,0.871,0.606,1.055,1.186c0.047,0.183,0.094,0.365,0.14,0.548c-0.036,0.252-0.073,0.504-0.11,0.758
			c-0.083,0.521-0.061,1.322,0.02,1.821c0.153,0.942,0.045,1.631,1.004,1.793c0.527,0.09,0.956-0.356,1.064-0.697
			c0.023-0.18,0.047-0.358,0.07-0.538c0.081-0.476,0.08-1.006,0.08-1.543c-0.003-0.223-0.006-0.446-0.01-0.668
			c-0.027-0.286-0.053-0.57-0.08-0.856c0.05-0.335,0.299-0.741,0.582-0.856c0.657-0.268,1.209,0.204,1.426,0.568
			c0.238,0.399,0.292,0.897,0.381,1.463c-0.023,0.24-0.047,0.479-0.07,0.719c0,0.208,0,0.418,0,0.627
			c0.007,0.142,0.014,0.285,0.021,0.428c0.091,0.436,0.385,0.726,0.823,0.816c0.252,0.053,0.504-0.031,0.652-0.119
			c0.937-0.555,0.32-1.94,0.793-2.869c0.18-0.352,0.715-0.788,1.244-0.438c0.809,0.534,0.572,2.645,0.572,3.954
			c-0.013,1.394-0.026,2.788-0.039,4.184c-0.676,1.726-1.353,3.452-2.028,5.178c-0.151,0.398-0.302,0.798-0.452,1.195
			c-0.104,0.262-0.236,0.51-0.291,0.817c-0.103,0.585,0.515,1.195,1.104,1.096c0.714-0.121,0.817-0.626,1.054-1.215
			c0.262-0.671,0.522-1.342,0.783-2.012c0.301-0.774,0.603-1.548,0.903-2.322c0.298-0.756,0.596-1.513,0.894-2.27
			c0.1-0.311,0.051-0.814,0.051-1.186c0.006-0.896,0.013-1.792,0.02-2.689c0.007-0.607,0.014-1.215,0.02-1.822
			C39.961,38.961,40.041,38.476,39.972,38.036z"/>
	</g>
</g>
</svg>
